<?xml version="1.0" encoding="UTF-8" standalone="no"?>
<svg width="128" height="128" viewBox="0 0 128 128" fill="none" xmlns="http://www.w3.org/2000/svg">
  <rect width="128" height="128" rx="16" fill="#0F1035"/>
  
  <!-- Bloco I (ciano) -->
  <rect x="24" y="23" width="20" height="20" fill="#00FFFF"/>
  <rect x="44" y="23" width="20" height="20" fill="#00FFFF"/>
  <rect x="64" y="23" width="20" height="20" fill="#00FFFF"/>
  <rect x="84" y="23" width="20" height="20" fill="#00FFFF"/>
  
  <!-- Bloco J (azul) -->
  <rect x="24" y="48" width="20" height="20" fill="#0000FF"/>
  <rect x="24" y="68" width="20" height="20" fill="#0000FF"/>
  <rect x="44" y="68" width="20" height="20" fill="#0000FF"/>
  <rect x="64" y="68" width="20" height="20" fill="#0000FF"/>
  
  <!-- Bloco T (roxo) -->
  <rect x="84" y="48" width="20" height="20" fill="#800080"/>
  <rect x="64" y="48" width="20" height="20" fill="#800080"/>
  <rect x="44" y="48" width="20" height="20" fill="#800080"/>
  <rect x="64" y="68" width="20" height="20" fill="#800080" opacity="0" />
  
  <!-- VS (texto) -->
  <text x="64" y="104" font-family="Arial, sans-serif" font-size="24" font-weight="bold" fill="#FFFFFF" text-anchor="middle">VS</text>
  
  <!-- Brilhos -->
  <rect x="24" y="23" width="5" height="5" fill="#FFFFFF" opacity="0.3"/>
  <rect x="44" y="23" width="5" height="5" fill="#FFFFFF" opacity="0.3"/>
  <rect x="64" y="23" width="5" height="5" fill="#FFFFFF" opacity="0.3"/>
  <rect x="84" y="23" width="5" height="5" fill="#FFFFFF" opacity="0.3"/>
  
  <rect x="24" y="48" width="5" height="5" fill="#FFFFFF" opacity="0.3"/>
  <rect x="24" y="68" width="5" height="5" fill="#FFFFFF" opacity="0.3"/>
  <rect x="44" y="68" width="5" height="5" fill="#FFFFFF" opacity="0.3"/>
  <rect x="64" y="68" width="5" height="5" fill="#FFFFFF" opacity="0.3"/>
  
  <rect x="84" y="48" width="5" height="5" fill="#FFFFFF" opacity="0.3"/>
  <rect x="64" y="48" width="5" height="5" fill="#FFFFFF" opacity="0.3"/>
  <rect x="44" y="48" width="5" height="5" fill="#FFFFFF" opacity="0.3"/>
</svg> 